<svg xmlns="http://www.w3.org/2000/svg" id="uuid-30bcdbcc-96d8-4f6e-abc5-923dfdd0b2c7" viewBox="0 0 666.05 438.98"><defs><style>.uuid-0eeb9740-62b5-4e5f-96d2-2b4cb53e79bd{stroke:#000;stroke-miterlimit:10;stroke-width:1.25px;}</style></defs><path class="uuid-0eeb9740-62b5-4e5f-96d2-2b4cb53e79bd" d="m662.82,262.55c-.74,2.68-1.46,5.36-2.21,8.04-5.44,19.52-14.96,36.81-28.53,51.84-18.69,20.69-41.7,34.04-68.87,40.2-6.39,1.45-12.88,2.31-19.44,2.75-4.48.3-8.95.31-13.42.32-17.92.01-35.84.02-53.75,0-5.17,0-10.2-.86-14.95-2.93-8.5-3.7-13.94-10.22-17.08-18.79-1.66-4.54-2.57-9.22-2.5-14.08.05-3.67.01-7.35.01-10.97,1.76-.56,7.81-.66,10.52-.22.54.51.36,1.18.36,1.8.02,3.36-.05,6.72.02,10.08.12,5.99,1.76,11.5,5.4,16.34,3.04,4.04,7.19,6.26,12.03,7.29,1.71.37,3.46.58,5.23.58,21.04-.02,42.08.14,63.11-.08,14.95-.16,29.31-3.52,43.07-9.34,14.16-5.99,26.71-14.44,37.58-25.29,14.96-14.94,25.34-32.62,30.97-53.04,2.32-8.42,3.59-17.01,4.06-25.75.42-7.7-.12-15.33-1.06-22.95-.04-.31-.15-.61-.23-.92-.24-2.47-.72-4.9-1.28-7.31-7.39-32.09-24.92-57.15-52.48-75.08-15.6-10.15-32.79-16.03-51.32-18.04-10.97-1.19-21.86-.84-32.74.94-2.42.4-4.8,1.17-7.39,1.13-13.73-39.34-38.49-69.51-75.29-89.08-36.8-19.57-75.71-23.64-115.8-12.42-40.14,11.24-70.62,35.61-92.34,70.87-35.81-14.39-69.59-11.64-101.37,10.46-30.72,23.6-43.98,54.85-40.84,93.41-.9.2-1.81.42-2.74.62-2.34.51-4.71.92-7.03,1.52-32.5,8.42-58.29,36.75-60.9,73.21-.86,12.05.88,23.77,5.3,35.05,3.11,7.94,7.22,15.31,12.79,21.82,3.6,4.74,7.88,8.8,12.51,12.5,10.85,8.64,23.15,14.12,36.78,16.57,3.61.65,7.27,1.1,10.96,1.14,2.4.03,4.8.05,7.2.05,89.03,0,178.07,0,267.1,0,2.31,0,4.62,0,6.93-.38,8.94-1.46,14.35-6.85,17.09-15.21,1.07-3.28,1.62-6.67,1.53-10.15-.07-2.72-.03-5.44,0-8.16,0-.7-.17-1.44.23-2.09,2.05-.47,8.52-.46,10.42.02.61,9.05.7,18.04-2.92,26.62-4.94,11.71-13.71,18.33-26.33,19.91-2.39.3-4.78.36-7.18.36-89.99,0-179.99,0-269.98-.01-16.14,0-31.35-3.72-45.54-11.46-1.26-.69-2.39-1.61-3.79-2.01-3.8-2.78-7.77-5.33-11.36-8.42-16.32-14.06-27.06-31.5-30.95-52.73-5.81-31.63,2.62-59.25,24.83-82.46,11.41-11.92,25.36-19.85,41.27-24.28.76-.21,1.52-.45,2.29-.68,0-38.79,14.72-70.56,46.13-93.43,31.43-22.89,66.21-26.93,103.22-15.12,23.88-34.53,55.88-58.16,96.82-68.77,40.78-10.57,80.35-6.45,117.95,12.64,37.68,19.14,64.09,48.89,80.11,87.95,3.03-.31,5.95-.64,8.89-.91,9.11-.82,18.2-.65,27.29.46,20.45,2.5,39.3,9.39,56.32,20.95,29.18,19.82,47.61,47.06,55.17,81.54,2.74,12.5,3.28,25.17,2.23,37.93-.43,5.27-1.45,10.45-2.1,15.68Z"></path><path class="uuid-0eeb9740-62b5-4e5f-96d2-2b4cb53e79bd" d="m335.25,422.72c-.03,2.75-.57,5.39-1.83,7.85-2.89,5.64-8.81,8.54-15.47,7.6-6.18-.87-10.95-5.57-12.16-11.91-.69-3.62-.47-7.15.91-10.58,2.29-5.7,7.41-9.09,13.66-9.09,6.23,0,11.37,3.42,13.67,9.09.91,2.25,1.24,4.61,1.22,7.03Zm-15.71,9.78c3.74.03,6.22-1.08,7.8-3.68,2.21-3.65,2.56-7.51.69-11.42-1.56-3.25-4.22-5.01-7.81-4.96-3.61.05-6.18,1.95-7.66,5.2-1.55,3.41-1.34,6.84.25,10.17,1.48,3.1,4.03,4.61,6.74,4.67Z"></path><path class="uuid-0eeb9740-62b5-4e5f-96d2-2b4cb53e79bd" d="m384.79,422.43c.03-1.92.23-3.82.83-5.66,2.16-6.63,8-10.56,15.07-10.16,6.76.39,12.16,5.11,13.52,11.86.83,4.11.52,8.13-1.39,11.9-2.82,5.56-7.5,8.07-13.65,7.91-5.98-.16-10.3-2.99-12.86-8.4-1.08-2.28-1.53-4.68-1.52-7.44Zm23.71-.06c.07-1.77-.36-3.54-1.23-5.19-1.58-3-4.08-4.72-7.48-4.75-3.49-.03-6.09,1.66-7.7,4.77-1.73,3.35-1.63,6.78-.17,10.16,1.47,3.42,4.13,5.16,7.89,5.12,3.63-.04,6.35-1.9,7.74-5.35.6-1.49.95-3.04.94-4.77Z"></path><path class="uuid-0eeb9740-62b5-4e5f-96d2-2b4cb53e79bd" d="m266.42,417.85v19.57c-2.05.21-3.85.26-5.75-.03v-30.59c1.32-.41,2.66-.14,4.1-.18,5.21,6.78,10.3,13.67,15.51,20.48.16-.06.32-.12.47-.19v-19.36h5.73v30.34c-1.27.56-2.63.09-4.05.33-5.19-6.87-10.36-13.71-15.53-20.55-.16.06-.32.12-.48.18Z"></path><path class="uuid-0eeb9740-62b5-4e5f-96d2-2b4cb53e79bd" d="m458.53,413.89c-1.68.9-3.21,1.73-4.72,2.54-.86-.27-1.01-1.07-1.43-1.6-3.1-3.91-8.44-4-11.61-.17-3.38,4.07-3.48,11.3-.22,15.45,1.94,2.48,5.11,3.64,7.9,2.71,2.9-.97,4.56-3.04,4.98-6.33-2.1-.46-4.18.04-6.27-.34v-4.49c2.14-.36,4.28-.11,6.4-.16,2.07-.04,4.14,0,6.2,0,1.17,7.05-3.14,16.48-12.58,16.84-8.06.31-14.32-5.52-15.11-14.16-.34-3.67.37-7.17,2.23-10.39,3.76-6.51,11.85-9.03,18.51-5.78,2.56,1.25,4.31,3.01,5.72,5.9Z"></path><path class="uuid-0eeb9740-62b5-4e5f-96d2-2b4cb53e79bd" d="m240.12,437.47c-2,.12-3.81.24-5.8-.11v-13.15c-3.58-.21-6.98-.06-10.42-.1-.72,1.42-.3,2.88-.37,4.27-.07,1.51-.02,3.04-.02,4.55v4.38c-2.02.42-3.88.32-5.85.08v-29.81c1.88-.3,3.7-.15,5.78-.12v11.6h10.63c.49-1.77.17-3.67.22-5.55.06-1.91.01-3.83.01-5.8.96-.51,1.92-.24,2.84-.28.94-.04,1.89,0,2.96,0v30.04Z"></path><path class="uuid-0eeb9740-62b5-4e5f-96d2-2b4cb53e79bd" d="m505.25,407.53h15.41c.21,1.56.11,3.11.04,4.91h-9.34c-.53,2.27-.15,4.32-.3,6.65h9.16c.24,1.85.19,3.41.06,5.18h-9.06c-.24,2.8-.18,5.39-.06,8.13h9.46c.26,1.68.14,3.23.09,4.77-1.67.49-11.85.62-15.25.22-.46-1.74-.64-24.42-.21-29.87Z"></path><path class="uuid-0eeb9740-62b5-4e5f-96d2-2b4cb53e79bd" d="m539.58,432.68c1.28-1.37,2.36-2.54,3.42-3.69.69.37.81,1.05,1.18,1.55.68.91,1.49,1.66,2.55,2.12,2.11.92,4.17.32,5.2-1.52,1.12-2,.69-4.22-1.09-5.56-.77-.58-1.66-.93-2.55-1.3-1.1-.46-2.22-.91-3.28-1.46-3.25-1.7-4.8-4.42-4.39-8.06.42-3.72,2.31-6.5,5.96-7.66,4.1-1.3,7.64.07,11.08,2.84-.9,1.34-1.73,2.57-2.52,3.75-.91.07-1.15-.67-1.64-1.01-1.25-.88-2.59-1.22-4.08-.89-1.36.31-2.29,1.15-2.62,2.51-.35,1.43.28,2.51,1.48,3.24.89.53,1.84.96,2.77,1.41.94.45,1.91.81,2.82,1.3,4.05,2.19,5.49,5.66,4.44,10.56-.92,4.25-4.06,7.08-8.26,7.47-4.76.44-8.1-1.69-10.47-5.57Z"></path><path class="uuid-0eeb9740-62b5-4e5f-96d2-2b4cb53e79bd" d="m148.1,432.41h9.39c.31,1.79.24,3.35.09,5.03h-15.16c-.42-1.81-.56-25.93-.18-29.67,1.72-.41,12.56-.5,15.28-.11.36,1.47.07,2.98.18,4.64-3.22.62-6.42-.12-9.61.43-.31,2.05-.14,4.02-.13,6.25,3.05.32,6.06-.02,9.15.22.46,1.58.2,3.15.18,4.99-3.03.27-6.05-.01-9.2.17v8.05Z"></path><path class="uuid-0eeb9740-62b5-4e5f-96d2-2b4cb53e79bd" d="m197.68,429.8v6.49c-4.52,3.12-10.96,2.38-15.08-.62-8.75-6.35-8.56-20.5.37-26.61,3.56-2.44,9.32-3.72,14.63-.64.33,2.05.09,4.19.13,6.32-.85.2-1.15-.52-1.64-.86-4.38-3.01-9.78-1.83-12.32,2.85-2.09,3.86-2.12,7.83.08,11.66,2.56,4.45,7.68,5.59,11.98,2.77.53-.35,1.02-.74,1.86-1.37Z"></path><path class="uuid-0eeb9740-62b5-4e5f-96d2-2b4cb53e79bd" d="m117.98,437.42c-2.17.23-3.97.2-6.04.04v-24.86h-5.77c-.53-1.7-.23-3.28-.25-4.82,1.8-.45,12.57-.59,17.83-.23v4.94h-5.78v24.93Z"></path><path class="uuid-0eeb9740-62b5-4e5f-96d2-2b4cb53e79bd" d="m354.31,407.52h5.68c.08,2.72.03,5.41.04,8.09,0,2.79,0,5.59,0,8.38v8.21c2.76.48,5.39.03,8.09.31.38,1.58.18,3.14.15,4.67-1.77.47-10.99.57-13.95.15v-29.82Z"></path><path class="uuid-0eeb9740-62b5-4e5f-96d2-2b4cb53e79bd" d="m479.15,407.53h5.36c.44,1.63.58,26.66.17,29.76-.41.34-.9.27-1.37.27-1.34,0-2.68,0-4.15,0v-30.04Z"></path><path class="uuid-0eeb9740-62b5-4e5f-96d2-2b4cb53e79bd" d="m426.72,102.47v201.93c-1.65.53-3.33.2-4.98.26-1.58.06-3.17.01-4.7.01-.47-2-.55-199.58-.11-202.2h9.79Z"></path><path class="uuid-0eeb9740-62b5-4e5f-96d2-2b4cb53e79bd" d="m573.25,266.66c7.3-7.42,14.35-14.58,21.35-21.7h13.67c-8.66,8.62-17.01,16.93-25.48,25.36,10.11,11.41,20.06,22.65,30.05,33.92-1.57.57-8,.73-13.24.34-7.86-8.88-15.81-17.86-23.79-26.87-1.26.5-1.9,1.54-2.82,2.46v24.1c-1.75.54-7.28.63-10.18.19v-104.6h9.83s.07.07.12.13c.05.06.13.12.14.19.04.24.08.47.08.71.02,21.67.05,43.34.07,65.02,0,.08.04.15.19.75Z"></path><path class="uuid-0eeb9740-62b5-4e5f-96d2-2b4cb53e79bd" d="m338.58,276.95h-46.51c-1.1,7.18,4.33,15.83,11.86,18.56,7.71,2.79,17.73,2.6,25.68-10.91,2.79,1.6,5.58,3.2,8.54,4.89-1.66,3.35-3.8,6.08-6.3,8.55-10.77,10.62-29.37,10.85-40.01,1.87-5.35-4.52-8.56-10.31-9.88-17.1-1.58-8.14-.85-16.12,2.75-23.65,4.86-10.17,13.07-15.4,24.32-15.85,7.31-.3,13.95,1.54,19.55,6.4,5.02,4.36,7.85,10,9.3,16.4.5,2.19.74,4.42.88,6.65.08,1.27.17,2.55-.19,4.2Zm-46.14-8.78h35.31c-.57-8.14-8.67-15.41-17.17-15.55-8.64-.14-17.42,7.31-18.13,15.55Z"></path><path class="uuid-0eeb9740-62b5-4e5f-96d2-2b4cb53e79bd" d="m178.46,276.93h-46.26c-1.15,6.77,3.86,15.1,10.91,18.21,5.05,2.22,10.25,2.41,15.4.36,5.16-2.05,8.36-6.25,11.15-10.92,2.9,1.66,5.65,3.24,8.36,4.79.04.96-.49,1.49-.84,2.09-8.48,14.04-23.84,17.3-36.2,13.37-8.29-2.64-14.08-8.19-17.15-16.25-4.22-11.09-3.42-22.03,2.56-32.31,4.78-8.21,12.31-12.29,21.73-12.91,4.77-.31,9.43.21,13.85,2.14,7.75,3.4,12.51,9.45,15.12,17.33,1.27,3.82,1.75,7.79,1.81,11.8.01.71.13,1.44-.43,2.31Zm-10.55-8.73c-1.35-9.1-9.59-16.1-18.08-15.56-8.72.55-17.11,8.08-17.23,15.56h35.31Z"></path><path class="uuid-0eeb9740-62b5-4e5f-96d2-2b4cb53e79bd" d="m452.45,304.6h-9.8c-.51-2-.54-144.28-.02-146.46h9.81v146.46Z"></path><path class="uuid-0eeb9740-62b5-4e5f-96d2-2b4cb53e79bd" d="m201.23,252.05c.69-.79,1.14-1.3,1.6-1.81,4.04-4.56,9.06-6.96,15.19-6.95,2,0,3.98.08,5.96.49,5.75,1.19,9.83,4.4,12.2,9.77,1.4,3.18,2.11,6.54,2.35,9.98.18,2.55.26,5.11.26,7.67.03,10.24.02,20.47,0,30.71,0,.86.2,1.76-.33,2.69-2.4.27-4.87.08-7.32.11-.78.01-1.59.18-2.44-.26-.29-.81-.15-1.69-.15-2.55-.02-11.12-.02-22.23-.03-33.35,0-2.73-.22-5.43-.97-8.07-1.29-4.54-4.18-7.01-8.82-7.61-1.67-.22-3.33-.24-5.02-.06-5.21.55-8.71,3.3-10.62,8.12-1.49,3.77-1.93,7.75-1.96,11.76-.06,8.88-.04,17.75-.05,26.63,0,1.67,0,3.35,0,5.08-1.74.6-3.42.24-5.06.3-1.59.06-3.19.01-4.64.01-.19-.19-.25-.23-.3-.29-.05-.06-.12-.13-.12-.2-.04-.8-.11-1.59-.11-2.39,0-18.71.02-37.42.04-56.13,0-.23.13-.45.23-.76h9.8c.39,2.19-.02,4.49.29,7.11Z"></path><path class="uuid-0eeb9740-62b5-4e5f-96d2-2b4cb53e79bd" d="m499.44,244.92h9.9c.58,2.16-.01,4.34.37,6.43.81.25,1-.44,1.32-.81,6.54-7.52,14.76-8.68,23.81-6.1,4.82,1.38,8.03,4.8,9.94,9.4,1.84,4.43,2.44,9.09,2.45,13.84.02,11.68.02,23.36.01,35.03,0,.55-.06,1.1-.1,1.95-3.28.09-6.51.06-9.8.01-.4-.96-.26-1.85-.26-2.7-.01-10.8,0-21.6-.03-32.39,0-2.8-.18-5.6-.83-8.33-1.27-5.31-4.2-7.84-9.65-8.46-1.93-.22-3.85-.14-5.73.21-4.35.81-7.32,3.41-9.05,7.43-1.25,2.89-1.79,5.97-1.98,9.09-.14,2.31-.19,4.64-.19,6.95-.02,8.48,0,16.96-.02,25.44,0,.86.23,1.76-.32,2.67h-9.82v-59.67Z"></path><path class="uuid-0eeb9740-62b5-4e5f-96d2-2b4cb53e79bd" d="m114.14,255.59c-2.22,2.18-4.43,4.35-6.76,6.64-.51-.15-.76-.89-1.2-1.42-5.89-7.23-15.25-9.94-23.97-6.93-8.59,2.97-14.34,11.11-14.6,20.29-.31,10.5,6.83,20.25,17.38,22.23,8.48,1.59,15.61-1.02,21.2-7.67.5-.6.78-1.41,1.43-1.73,2.22,2.24,4.41,4.45,6.62,6.68-4.44,7.43-17.21,15.09-32,11.96-14.01-2.97-24.34-15.01-25.03-29.08-.71-14.46,8.18-27.38,21.85-31.76,14.09-4.51,28.46,1.23,35.08,10.79Z"></path><path class="uuid-0eeb9740-62b5-4e5f-96d2-2b4cb53e79bd" d="m400.05,304.66h-9.36c-.15-.13-.22-.17-.28-.23-.05-.06-.11-.13-.12-.19-.28-36.61-.05-73.21-.12-109.82,0-.71-.11-1.43.21-2.27,1.56-.46,3.23-.16,4.88-.21,1.58-.05,3.17-.01,4.7-.01.46,2,.53,110.11.08,112.73Z"></path><path class="uuid-0eeb9740-62b5-4e5f-96d2-2b4cb53e79bd" d="m250.37,244.88h6.01c.2-3.68.07-7.16.09-10.64.02-3.51,0-7.02,0-10.48,1.85-.52,7.6-.59,10.29-.12v21.18h10.55v9.49h-10.45v49.97c-1.91.53-7.68.6-10.33.14v-49.82c-2.12-.56-4.14.03-6.16-.44v-9.29Z"></path><path class="uuid-0eeb9740-62b5-4e5f-96d2-2b4cb53e79bd" d="m349.02,244.94h9.97v5.87c.15.08.3.16.46.23,2.96-3.93,6.21-7.37,11.49-7.73,3.81-.26,7.26.65,10.68,2.78-1.59,3.05-3.15,6.05-4.66,8.93-.81.04-1.15-.35-1.5-.64-3.52-2.98-10.24-2.15-13.25,3.01-1.52,2.6-2.26,5.43-2.7,8.37-.42,2.85-.51,5.72-.5,8.6.01,9.35,0,18.7,0,28.05,0,.64,0,1.27,0,1.96-1.71.64-3.39.26-5.03.32-1.59.07-3.19.01-4.63.01-.21-.16-.28-.2-.33-.26-.05-.06-.11-.13-.13-.2-.06-.31-.13-.63-.13-.94,0-19.18,0-38.36.02-57.54,0-.23.12-.45.23-.84Z"></path><path class="uuid-0eeb9740-62b5-4e5f-96d2-2b4cb53e79bd" d="m479.77,304.59h-9.73c-.25-6.59-.08-13.18-.11-19.77-.03-6.64,0-13.27,0-19.91s0-13.22,0-19.95h9.77c.06.05.13.09.18.15.05.06.11.12.12.19.04.48.1.95.1,1.43-.01,19.11-.03,38.21-.06,57.32,0,.14-.13.27-.26.54Z"></path><path class="uuid-0eeb9740-62b5-4e5f-96d2-2b4cb53e79bd" d="m482.33,222.44c-.03,3.99-3.37,7.23-7.41,7.18-3.95-.06-7.14-3.23-7.18-7.15-.04-3.93,3.33-7.35,7.28-7.36,3.91-.01,7.34,3.43,7.31,7.34Z"></path></svg>